<svg width="512" height="126" viewBox="0 0 512 126" fill="none" xmlns="http://www.w3.org/2000/svg">
<rect width="125.032" height="125.032" rx="42" fill="#D1D1D1"/>
<path d="M68.3317 58.971C65.8481 56.4908 62.4817 55.0977 58.9717 55.0977C55.4618 55.0977 52.0953 56.4908 49.6118 58.971L40.2487 68.331C37.7659 70.8138 36.3711 74.1813 36.3711 77.6925C36.3711 81.2037 37.7659 84.5712 40.2487 87.054C42.7316 89.5368 46.099 90.9316 49.6102 90.9316C53.1215 90.9316 56.4889 89.5368 58.9717 87.054L63.6517 82.374" stroke="black" stroke-width="6" stroke-linecap="round" stroke-linejoin="round"/>
<path d="M58.9727 68.3317C61.4562 70.812 64.8227 72.2051 68.3326 72.2051C71.8426 72.2051 75.209 70.812 77.6926 68.3317L87.0556 58.9717C89.5384 56.4889 90.9333 53.1215 90.9333 49.6102C90.9333 46.099 89.5384 42.7316 87.0556 40.2487C84.5728 37.7659 81.2054 36.3711 77.6941 36.3711C74.1829 36.3711 70.8154 37.7659 68.3326 40.2487L63.6526 44.9287" stroke="black" stroke-width="6" stroke-linecap="round" stroke-linejoin="round"/>
<path d="M185.294 94.1045C180.984 94.1045 176.974 93.368 173.264 91.8949C169.608 90.3672 166.389 88.2394 163.607 85.5114C160.879 82.7834 158.751 79.619 157.223 76.0181C155.695 72.3626 154.932 68.4343 154.932 64.2332C154.932 60.0321 155.695 56.1311 157.223 52.5302C158.751 48.8747 160.879 45.7103 163.607 43.0369C166.335 40.3635 169.526 38.2902 173.182 36.8171C176.892 35.2894 180.902 34.5256 185.212 34.5256C189.795 34.5256 193.86 35.2622 197.406 36.7353C201.007 38.2084 204.144 40.2271 206.818 42.7914L198.225 51.4663C196.697 49.8295 194.842 48.5474 192.659 47.6199C190.532 46.6924 188.049 46.2286 185.212 46.2286C182.702 46.2286 180.384 46.6651 178.256 47.538C176.183 48.3564 174.382 49.5567 172.854 51.139C171.381 52.7212 170.208 54.6308 169.335 56.8677C168.517 59.1046 168.108 61.5598 168.108 64.2332C168.108 66.9612 168.517 69.4436 169.335 71.6806C170.208 73.9175 171.381 75.8271 172.854 77.4093C174.382 78.9915 176.183 80.2191 178.256 81.0921C180.384 81.965 182.702 82.4015 185.212 82.4015C188.158 82.4015 190.723 81.9378 192.905 81.0102C195.087 80.0827 196.97 78.8006 198.552 77.1638L207.227 85.8388C204.444 88.403 201.253 90.4217 197.652 91.8949C194.105 93.368 189.986 94.1045 185.294 94.1045Z" fill="#D1D1D1"/>
<path d="M239.427 93.2043V70.5348C239.427 68.4616 238.772 66.7975 237.463 65.5426C236.208 64.2332 234.598 63.5785 232.634 63.5785C231.27 63.5785 230.07 63.8786 229.033 64.4787C227.997 65.0243 227.178 65.8427 226.578 66.9339C225.978 67.9705 225.678 69.1708 225.678 70.5348L220.849 68.1615C220.849 65.0516 221.504 62.3236 222.813 59.9776C224.123 57.6315 225.951 55.8311 228.297 54.5762C230.643 53.2668 233.343 52.6121 236.399 52.6121C239.509 52.6121 242.237 53.2668 244.583 54.5762C246.929 55.8311 248.729 57.6043 249.984 59.8957C251.293 62.1327 251.948 64.7515 251.948 67.7523V93.2043H239.427ZM213.156 93.2043V33.7891H225.678V93.2043H213.156Z" fill="#D1D1D1"/>
<path d="M276.603 94.0227C272.948 94.0227 269.674 93.1224 266.783 91.322C263.946 89.5215 261.681 87.0663 259.99 83.9565C258.353 80.8466 257.535 77.3002 257.535 73.3174C257.535 69.3345 258.353 65.7882 259.99 62.6783C261.681 59.5684 263.946 57.1132 266.783 55.3128C269.674 53.5123 272.948 52.6121 276.603 52.6121C279.277 52.6121 281.677 53.1304 283.805 54.167C285.988 55.2036 287.761 56.6495 289.125 58.5045C290.489 60.3049 291.253 62.3782 291.416 64.7243V81.9105C291.253 84.2565 290.489 86.3571 289.125 88.2121C287.815 90.0126 286.069 91.4311 283.887 92.4677C281.705 93.5044 279.277 94.0227 276.603 94.0227ZM279.14 82.7289C281.814 82.7289 283.969 81.8559 285.606 80.11C287.243 78.3096 288.061 76.0453 288.061 73.3174C288.061 71.4623 287.679 69.8256 286.915 68.407C286.206 66.9885 285.169 65.8973 283.805 65.1335C282.496 64.3151 280.968 63.9059 279.222 63.9059C277.476 63.9059 275.921 64.3151 274.557 65.1335C273.248 65.8973 272.184 66.9885 271.366 68.407C270.602 69.8256 270.22 71.4623 270.22 73.3174C270.22 75.1178 270.602 76.7273 271.366 78.1459C272.13 79.5644 273.193 80.6829 274.557 81.5013C275.921 82.3197 277.449 82.7289 279.14 82.7289ZM287.57 93.2043V82.4834L289.452 72.8263L287.57 63.1693V53.4305H299.846V93.2043H287.57Z" fill="#D1D1D1"/>
<path d="M308.662 93.2043V53.4305H321.183V93.2043H308.662ZM314.964 47.9472C312.999 47.9472 311.363 47.2925 310.053 45.9831C308.798 44.6191 308.171 42.9823 308.171 41.0727C308.171 39.1086 308.798 37.4718 310.053 36.1624C311.363 34.853 312.999 34.1983 314.964 34.1983C316.928 34.1983 318.537 34.853 319.792 36.1624C321.047 37.4718 321.674 39.1086 321.674 41.0727C321.674 42.9823 321.047 44.6191 319.792 45.9831C318.537 47.2925 316.928 47.9472 314.964 47.9472Z" fill="#D1D1D1"/>
<path d="M356.271 93.2043V70.5348C356.271 68.4616 355.617 66.7975 354.307 65.5426C353.052 64.2332 351.443 63.5785 349.479 63.5785C348.115 63.5785 346.914 63.8786 345.878 64.4787C344.841 65.0243 344.023 65.8427 343.423 66.9339C342.822 67.9705 342.522 69.1708 342.522 70.5348L337.694 68.1615C337.694 65.0516 338.376 62.3236 339.74 59.9776C341.104 57.6315 342.986 55.8311 345.387 54.5762C347.842 53.2668 350.597 52.6121 353.652 52.6121C356.599 52.6121 359.19 53.3213 361.427 54.7399C363.719 56.1039 365.519 57.9316 366.829 60.2231C368.138 62.5146 368.793 65.0243 368.793 67.7523V93.2043H356.271ZM330.001 93.2043V53.4305H342.522V93.2043H330.001Z" fill="#D1D1D1"/>
<path d="M376.835 93.2043V33.7891H389.356V93.2043H376.835Z" fill="#D1D1D1"/>
<path d="M417.815 94.1045C413.505 94.1045 409.658 93.2316 406.276 91.4857C402.948 89.6852 400.329 87.2027 398.419 84.0383C396.509 80.8738 395.555 77.3002 395.555 73.3174C395.555 69.3345 396.482 65.7882 398.337 62.6783C400.247 59.5138 402.811 57.0314 406.03 55.2309C409.249 53.4305 412.877 52.5302 416.915 52.5302C420.843 52.5302 424.308 53.3759 427.308 55.0672C430.309 56.7586 432.655 59.1046 434.346 62.1054C436.092 65.1062 436.965 68.5434 436.965 72.4171C436.965 73.1264 436.911 73.8902 436.802 74.7086C436.747 75.4725 436.611 76.3727 436.392 77.4093L402.102 77.4912V68.8981L431.073 68.8162L425.672 72.4171C425.617 70.1256 425.262 68.2433 424.608 66.7702C423.953 65.2426 422.971 64.0968 421.661 63.333C420.407 62.5146 418.852 62.1054 416.997 62.1054C415.032 62.1054 413.314 62.5692 411.841 63.4967C410.422 64.3696 409.304 65.6245 408.485 67.2613C407.721 68.8981 407.34 70.8895 407.34 73.2355C407.34 75.5816 407.749 77.6003 408.567 79.2916C409.44 80.9284 410.64 82.2106 412.168 83.1381C413.75 84.011 415.605 84.4475 417.733 84.4475C419.697 84.4475 421.47 84.1201 423.053 83.4654C424.635 82.7562 426.026 81.7195 427.226 80.3555L434.101 87.23C432.137 89.5215 429.763 91.2401 426.981 92.3859C424.198 93.5316 421.143 94.1045 417.815 94.1045Z" fill="#D1D1D1"/>
<path d="M457.495 94.1864C455.149 94.1864 452.83 93.8863 450.538 93.2861C448.302 92.686 446.201 91.8403 444.237 90.7491C442.327 89.6034 440.69 88.2939 439.326 86.8208L446.446 79.619C447.756 81.0375 449.311 82.156 451.111 82.9744C452.912 83.7382 454.876 84.1201 457.004 84.1201C458.477 84.1201 459.595 83.9019 460.359 83.4654C461.178 83.0289 461.587 82.4288 461.587 81.665C461.587 80.6829 461.096 79.9463 460.114 79.4553C459.186 78.9097 457.986 78.446 456.513 78.064C455.04 77.6276 453.485 77.1638 451.848 76.6728C450.211 76.1817 448.656 75.4997 447.183 74.6268C445.71 73.7538 444.51 72.5535 443.582 71.0259C442.655 69.4436 442.191 67.4522 442.191 65.0516C442.191 62.4873 442.846 60.2777 444.155 58.4226C445.464 56.5131 447.319 55.0127 449.72 53.9215C452.121 52.8303 454.93 52.2847 458.149 52.2847C461.532 52.2847 464.642 52.8849 467.479 54.0852C470.371 55.2309 472.717 56.9495 474.517 59.241L467.397 66.4429C466.142 64.9698 464.724 63.9331 463.142 63.333C461.614 62.7328 460.114 62.4328 458.641 62.4328C457.222 62.4328 456.158 62.651 455.449 63.0875C454.74 63.4694 454.385 64.0423 454.385 64.8061C454.385 65.6245 454.849 66.2792 455.776 66.7702C456.704 67.2613 457.904 67.6977 459.377 68.0797C460.85 68.4616 462.405 68.9253 464.042 69.4709C465.679 70.0165 467.234 70.7531 468.707 71.6806C470.18 72.6081 471.38 73.863 472.308 75.4452C473.235 76.9728 473.699 78.9915 473.699 81.5013C473.699 85.375 472.226 88.4576 469.28 90.7491C466.388 93.0406 462.46 94.1864 457.495 94.1864Z" fill="#D1D1D1"/>
<path d="M494.978 94.1864C492.632 94.1864 490.313 93.8863 488.021 93.2861C485.784 92.686 483.684 91.8403 481.72 90.7491C479.81 89.6034 478.173 88.2939 476.809 86.8208L483.929 79.619C485.239 81.0375 486.794 82.156 488.594 82.9744C490.395 83.7382 492.359 84.1201 494.487 84.1201C495.96 84.1201 497.078 83.9019 497.842 83.4654C498.66 83.0289 499.07 82.4288 499.07 81.665C499.07 80.6829 498.579 79.9463 497.597 79.4553C496.669 78.9097 495.469 78.446 493.996 78.064C492.523 77.6276 490.968 77.1638 489.331 76.6728C487.694 76.1817 486.139 75.4997 484.666 74.6268C483.193 73.7538 481.993 72.5535 481.065 71.0259C480.138 69.4436 479.674 67.4522 479.674 65.0516C479.674 62.4873 480.329 60.2777 481.638 58.4226C482.947 56.5131 484.802 55.0127 487.203 53.9215C489.604 52.8303 492.413 52.2847 495.632 52.2847C499.015 52.2847 502.125 52.8849 504.962 54.0852C507.854 55.2309 510.2 56.9495 512 59.241L504.88 66.4429C503.625 64.9698 502.207 63.9331 500.625 63.333C499.097 62.7328 497.597 62.4328 496.123 62.4328C494.705 62.4328 493.641 62.651 492.932 63.0875C492.223 63.4694 491.868 64.0423 491.868 64.8061C491.868 65.6245 492.332 66.2792 493.259 66.7702C494.187 67.2613 495.387 67.6977 496.86 68.0797C498.333 68.4616 499.888 68.9253 501.525 69.4709C503.162 70.0165 504.717 70.7531 506.19 71.6806C507.663 72.6081 508.863 73.863 509.791 75.4452C510.718 76.9728 511.182 78.9915 511.182 81.5013C511.182 85.375 509.709 88.4576 506.763 90.7491C503.871 93.0406 499.943 94.1864 494.978 94.1864Z" fill="#D1D1D1"/>
</svg>
