<svg width="55" height="55" viewBox="0 0 55 55" fill="none" xmlns="http://www.w3.org/2000/svg">
<rect width="55" height="55" rx="21" fill="#181818"/>
<path d="M30.0591 25.9421C28.9666 24.8511 27.4857 24.2383 25.9417 24.2383C24.3977 24.2383 22.9169 24.8511 21.8244 25.9421L17.7057 30.0595C16.6136 31.1516 16 32.6329 16 34.1775C16 35.722 16.6136 37.2033 17.7057 38.2955C18.7979 39.3876 20.2792 40.0012 21.8237 40.0012C23.3683 40.0012 24.8496 39.3876 25.9417 38.2955L28.0004 36.2368" stroke="white" stroke-width="2" stroke-linecap="round" stroke-linejoin="round"/>
<path d="M25.9414 30.0591C27.0339 31.1501 28.5148 31.7629 30.0587 31.7629C31.6027 31.7629 33.0836 31.1501 34.1761 30.0591L38.2947 25.9417C39.3869 24.8496 40.0005 23.3683 40.0005 21.8237C40.0005 20.2792 39.3869 18.7979 38.2947 17.7057C37.2026 16.6136 35.7213 16 34.1767 16C32.6322 16 31.1509 16.6136 30.0587 17.7057L28.0001 19.7644" stroke="white" stroke-width="2" stroke-linecap="round" stroke-linejoin="round"/>
</svg>
